<?xml version="1.0" standalone="no"?>
<!DOCTYPE svg PUBLIC "-//W3C//DTD SVG 20010904//EN"
 "http://www.w3.org/TR/2001/REC-SVG-20010904/DTD/svg10.dtd">
<svg version="1.0" xmlns="http://www.w3.org/2000/svg"
 width="512.000000pt" height="512.000000pt" viewBox="0 0 512.000000 512.000000"
 preserveAspectRatio="xMidYMid meet">
<metadata>
Created by potrace 1.14, written by Peter Selinger 2001-2017
</metadata>
<g transform="translate(0.000000,512.000000) scale(0.100000,-0.100000)"
fill="#000000" stroke="none">
<path d="M2081 5099 c-55 -24 -151 -101 -256 -205 -121 -119 -1145 -1346
-1145 -1372 0 -12 -56 -90 -80 -112 -3 -3 -47 -55 -97 -115 -202 -244 -213
-337 -98 -777 3 -10 7 -26 9 -35 15 -59 97 -364 106 -393 6 -19 37 -132 71
-250 161 -574 316 -1056 445 -1388 74 -190 103 -241 179 -317 59 -59 81 -74
139 -94 98 -34 288 -35 441 -1 22 5 54 11 70 14 17 3 71 17 120 31 50 14 97
28 105 30 8 2 67 20 130 40 63 20 164 49 225 65 60 16 181 47 269 70 87 23
166 43 175 45 97 22 488 132 651 182 47 15 90 28 95 29 6 1 30 9 55 17 25 8
207 68 405 132 514 167 529 173 603 245 48 47 65 76 81 138 12 44 16 158 6
202 -3 14 -8 39 -11 55 -16 89 -124 431 -204 645 -85 228 -162 446 -266 758
-161 483 -243 700 -385 1021 -34 75 -72 169 -86 209 -56 162 -124 268 -188
292 -43 16 -86 12 -194 -21 -95 -29 -103 -30 -126 -15 -14 9 -29 33 -35 56
-19 72 -69 183 -105 236 -46 66 -77 79 -185 78 -100 -2 -163 -23 -285 -95 -44
-26 -81 -46 -82 -46 0 1 -44 99 -96 218 -52 119 -107 240 -122 269 -33 65
-109 148 -152 166 -46 20 -130 16 -182 -7z"/>
</g>
</svg>
